<svg width="80" height="80" viewBox="0 0 80 80" fill="none" xmlns="http://www.w3.org/2000/svg">
<path d="M73.3327 23.3333V13.3333C73.3327 11.4933 71.8427 10 69.9994 10H9.99935C8.15602 10 6.66602 11.4933 6.66602 13.3333V23.3333C6.66602 25.1733 8.15602 26.6667 9.99935 26.6667V60H6.66602V66.6667H36.666V73.3333H43.3327V66.6667H73.3327V60H69.9994V26.6667C71.8427 26.6667 73.3327 25.1733 73.3327 23.3333ZM33.3327 38.89H25.5527C24.9394 38.89 24.4427 39.3867 24.4427 40C24.4427 40.6133 24.9394 41.11 25.5527 41.11H27.776C30.8394 41.11 33.3327 43.6067 33.3327 46.6667C33.3327 49.35 31.4194 51.59 28.886 52.11V54.4433H24.4427V52.2233H19.9993V47.7767H27.776C28.3894 47.7767 28.886 47.28 28.886 46.6667C28.886 46.0533 28.3894 45.5567 27.776 45.5567H25.5527C22.4893 45.5567 19.9993 43.0633 19.9993 40C19.9993 37.32 21.9094 35.0767 24.4427 34.5567V32.2233H28.886V34.4433H33.3327V38.89ZM49.9994 56.6667H43.3327V40H49.9994V56.6667ZM59.9994 56.6667H53.3327V33.3333H59.9994V56.6667ZM66.666 20H13.3327V16.6667H66.666V20Z" fill="#5865F2"/>
</svg>
